<mxfile host="app.diagrams.net" agent="Mozilla/5.0 (Windows NT 10.0; Win64; x64) AppleWebKit/537.36 (KHTML, like Gecko) Chrome/133.0.0.0 Safari/537.36" version="26.0.16">
  <diagram id="WfgWY8QgoC5HqaVRSz44" name="Azure Arch">
    <mxGraphModel dx="3268" dy="2872" grid="0" gridSize="10" guides="1" tooltips="1" connect="1" arrows="1" fold="1" page="0" pageScale="1" pageWidth="850" pageHeight="1100" math="0" shadow="0">
      <root>
        <mxCell id="0" />
        <mxCell id="1" parent="0" />
        <mxCell id="9Zc6rPyas6dSKJR-6tea-4" value="" style="rounded=1;whiteSpace=wrap;html=1;fillColor=#e1d5e7;gradientColor=none;opacity=20;dashed=1;dashPattern=8 8;" vertex="1" parent="1">
          <mxGeometry x="432" y="-727" width="1365" height="388" as="geometry" />
        </mxCell>
        <mxCell id="9Zc6rPyas6dSKJR-6tea-1" value="Client" style="rounded=1;whiteSpace=wrap;html=1;fillColor=#dae8fc;" vertex="1" parent="1">
          <mxGeometry x="-146" y="-496" width="150" height="60" as="geometry" />
        </mxCell>
        <mxCell id="9Zc6rPyas6dSKJR-6tea-2" value="Azure Application Gateway" style="rounded=1;whiteSpace=wrap;html=1;fillColor=#ffe6cc;" vertex="1" parent="1">
          <mxGeometry x="100" y="-494" width="200" height="60" as="geometry" />
        </mxCell>
        <mxCell id="y66HL5zxgoOWzB-sJwk1-8" value="" style="edgeStyle=none;curved=1;rounded=0;orthogonalLoop=1;jettySize=auto;html=1;fontSize=12;startSize=8;endSize=8;" edge="1" parent="1" source="9Zc6rPyas6dSKJR-6tea-3" target="9Zc6rPyas6dSKJR-6tea-5">
          <mxGeometry relative="1" as="geometry" />
        </mxCell>
        <mxCell id="9Zc6rPyas6dSKJR-6tea-3" value="Azure Service Bus Queue" style="rounded=1;whiteSpace=wrap;html=1;fillColor=#fff2cc;" vertex="1" parent="1">
          <mxGeometry x="1062" y="-540" width="220" height="60" as="geometry" />
        </mxCell>
        <mxCell id="7qZpMShPBmY9rj3Hw2l7-9" value="" style="edgeStyle=none;curved=1;rounded=0;orthogonalLoop=1;jettySize=auto;html=1;fontSize=12;startSize=8;endSize=8;exitX=0.5;exitY=0;exitDx=0;exitDy=0;" edge="1" parent="1" source="9Zc6rPyas6dSKJR-6tea-3" target="9Zc6rPyas6dSKJR-6tea-6">
          <mxGeometry relative="1" as="geometry" />
        </mxCell>
        <mxCell id="7qZpMShPBmY9rj3Hw2l7-11" style="edgeStyle=none;curved=0;rounded=0;orthogonalLoop=1;jettySize=auto;html=1;fontSize=12;startSize=8;endSize=8;exitX=0.21;exitY=0.076;exitDx=0;exitDy=0;exitPerimeter=0;" edge="1" parent="1" source="9Zc6rPyas6dSKJR-6tea-3">
          <mxGeometry relative="1" as="geometry">
            <mxPoint x="868" y="-673" as="targetPoint" />
            <Array as="points">
              <mxPoint x="1110" y="-673" />
              <mxPoint x="928" y="-673" />
            </Array>
          </mxGeometry>
        </mxCell>
        <mxCell id="7qZpMShPBmY9rj3Hw2l7-12" value="Persit Status" style="edgeLabel;html=1;align=center;verticalAlign=middle;resizable=0;points=[];fontSize=12;" vertex="1" connectable="0" parent="7qZpMShPBmY9rj3Hw2l7-11">
          <mxGeometry x="-0.0806" y="1" relative="1" as="geometry">
            <mxPoint x="-74" y="-1" as="offset" />
          </mxGeometry>
        </mxCell>
        <mxCell id="y66HL5zxgoOWzB-sJwk1-9" value="" style="edgeStyle=none;curved=1;rounded=0;orthogonalLoop=1;jettySize=auto;html=1;fontSize=12;startSize=8;endSize=8;" edge="1" parent="1" source="9Zc6rPyas6dSKJR-6tea-5" target="9Zc6rPyas6dSKJR-6tea-3">
          <mxGeometry relative="1" as="geometry" />
        </mxCell>
        <mxCell id="9Zc6rPyas6dSKJR-6tea-5" value="" style="rounded=1;whiteSpace=wrap;html=1;fillColor=#f8cecc;opacity=30;dashed=1;dashPattern=8 8;" vertex="1" parent="1">
          <mxGeometry x="1330" y="-707" width="400" height="349" as="geometry" />
        </mxCell>
        <mxCell id="9Zc6rPyas6dSKJR-6tea-6" value="Azure Blob Storage\n(Generated Reports)" style="rounded=1;whiteSpace=wrap;html=1;fillColor=#d5e8d4;" vertex="1" parent="1">
          <mxGeometry x="1051" y="-853" width="250" height="60" as="geometry" />
        </mxCell>
        <mxCell id="9Zc6rPyas6dSKJR-6tea-8" value="Azure Cache for Redis" style="rounded=1;whiteSpace=wrap;html=1;fillColor=#d5e8d4;" vertex="1" parent="1">
          <mxGeometry x="495" y="-636" width="163" height="60" as="geometry" />
        </mxCell>
        <mxCell id="9Zc6rPyas6dSKJR-6tea-9" value="POST /generate" style="edgeStyle=orthogonalEdgeStyle;rounded=0;orthogonalLoop=1;jettySize=auto;html=1;entryX=0.5;entryY=1;entryDx=0;entryDy=0;" edge="1" parent="1" source="9Zc6rPyas6dSKJR-6tea-1" target="9Zc6rPyas6dSKJR-6tea-2">
          <mxGeometry relative="1" as="geometry">
            <mxPoint x="174" y="-438" as="targetPoint" />
          </mxGeometry>
        </mxCell>
        <mxCell id="9Zc6rPyas6dSKJR-6tea-10" value="Forward Request" style="edgeStyle=orthogonalEdgeStyle;rounded=0;orthogonalLoop=1;jettySize=auto;html=1;entryX=0.25;entryY=1;entryDx=0;entryDy=0;" edge="1" parent="1" source="9Zc6rPyas6dSKJR-6tea-2" target="9Zc6rPyas6dSKJR-6tea-8">
          <mxGeometry relative="1" as="geometry" />
        </mxCell>
        <mxCell id="9Zc6rPyas6dSKJR-6tea-11" value="Queue Message" style="edgeStyle=orthogonalEdgeStyle;rounded=0;orthogonalLoop=1;jettySize=auto;html=1;entryX=0.75;entryY=1;entryDx=0;entryDy=0;exitX=0;exitY=0.5;exitDx=0;exitDy=0;" edge="1" parent="1" source="9Zc6rPyas6dSKJR-6tea-3" target="9Zc6rPyas6dSKJR-6tea-8">
          <mxGeometry relative="1" as="geometry">
            <Array as="points">
              <mxPoint x="607" y="-511" />
            </Array>
          </mxGeometry>
        </mxCell>
        <mxCell id="9Zc6rPyas6dSKJR-6tea-14" value="GET /status/{id}" style="edgeStyle=orthogonalEdgeStyle;rounded=0;orthogonalLoop=1;jettySize=auto;html=1;entryX=0.5;entryY=0;entryDx=0;entryDy=0;" edge="1" parent="1" source="9Zc6rPyas6dSKJR-6tea-1" target="9Zc6rPyas6dSKJR-6tea-2">
          <mxGeometry relative="1" as="geometry" />
        </mxCell>
        <mxCell id="9Zc6rPyas6dSKJR-6tea-15" value="Download Link" style="edgeStyle=orthogonalEdgeStyle;rounded=0;orthogonalLoop=1;jettySize=auto;html=1;entryX=0.5;entryY=0;entryDx=0;entryDy=0;" edge="1" parent="1" source="9Zc6rPyas6dSKJR-6tea-6" target="9Zc6rPyas6dSKJR-6tea-8">
          <mxGeometry relative="1" as="geometry" />
        </mxCell>
        <mxCell id="7qZpMShPBmY9rj3Hw2l7-2" style="edgeStyle=none;curved=1;rounded=0;orthogonalLoop=1;jettySize=auto;html=1;exitX=0.75;exitY=1;exitDx=0;exitDy=0;fontSize=12;startSize=8;endSize=8;" edge="1" parent="1" source="9Zc6rPyas6dSKJR-6tea-8" target="9Zc6rPyas6dSKJR-6tea-8">
          <mxGeometry relative="1" as="geometry" />
        </mxCell>
        <mxCell id="7qZpMShPBmY9rj3Hw2l7-8" style="edgeStyle=none;curved=1;rounded=0;orthogonalLoop=1;jettySize=auto;html=1;exitX=1;exitY=0.5;exitDx=0;exitDy=0;fontSize=12;startSize=8;endSize=8;" edge="1" parent="1" source="9Zc6rPyas6dSKJR-6tea-4" target="9Zc6rPyas6dSKJR-6tea-4">
          <mxGeometry relative="1" as="geometry" />
        </mxCell>
        <mxCell id="7qZpMShPBmY9rj3Hw2l7-10" value="PostgueSQL" style="shape=cylinder3;whiteSpace=wrap;html=1;boundedLbl=1;backgroundOutline=1;size=15;" vertex="1" parent="1">
          <mxGeometry x="778" y="-707" width="96" height="104" as="geometry" />
        </mxCell>
        <mxCell id="HXGwexkmltHid2Pngxan-1" style="edgeStyle=none;curved=1;rounded=0;orthogonalLoop=1;jettySize=auto;html=1;exitX=1;exitY=0.5;exitDx=0;exitDy=0;fontSize=12;startSize=8;endSize=8;" edge="1" parent="1" source="9Zc6rPyas6dSKJR-6tea-4" target="9Zc6rPyas6dSKJR-6tea-4">
          <mxGeometry relative="1" as="geometry" />
        </mxCell>
        <mxCell id="HXGwexkmltHid2Pngxan-4" value="" style="endArrow=classic;startArrow=classic;html=1;rounded=0;fontSize=12;startSize=8;endSize=8;curved=1;entryX=0;entryY=0.5;entryDx=0;entryDy=0;entryPerimeter=0;exitX=1;exitY=0.5;exitDx=0;exitDy=0;" edge="1" parent="1" source="9Zc6rPyas6dSKJR-6tea-8" target="7qZpMShPBmY9rj3Hw2l7-10">
          <mxGeometry width="50" height="50" relative="1" as="geometry">
            <mxPoint x="780" y="-398" as="sourcePoint" />
            <mxPoint x="805" y="-643" as="targetPoint" />
          </mxGeometry>
        </mxCell>
        <mxCell id="y66HL5zxgoOWzB-sJwk1-1" value="Consumer/Listiner" style="rounded=1;whiteSpace=wrap;html=1;fillColor=#fff2cc;" vertex="1" parent="1">
          <mxGeometry x="1352" y="-691" width="151" height="39" as="geometry" />
        </mxCell>
        <mxCell id="y66HL5zxgoOWzB-sJwk1-40" value="" style="edgeStyle=none;curved=1;rounded=0;orthogonalLoop=1;jettySize=auto;html=1;fontSize=12;startSize=8;endSize=8;" edge="1" parent="1" source="y66HL5zxgoOWzB-sJwk1-2" target="y66HL5zxgoOWzB-sJwk1-15">
          <mxGeometry relative="1" as="geometry" />
        </mxCell>
        <mxCell id="y66HL5zxgoOWzB-sJwk1-41" value="Fail" style="edgeLabel;html=1;align=center;verticalAlign=middle;resizable=0;points=[];fontSize=12;" vertex="1" connectable="0" parent="y66HL5zxgoOWzB-sJwk1-40">
          <mxGeometry x="-0.0008" y="2" relative="1" as="geometry">
            <mxPoint as="offset" />
          </mxGeometry>
        </mxCell>
        <mxCell id="y66HL5zxgoOWzB-sJwk1-2" value="Worker" style="rounded=1;whiteSpace=wrap;html=1;fillColor=#e1d5e7;" vertex="1" parent="1">
          <mxGeometry x="1427" y="-582" width="200" height="60" as="geometry" />
        </mxCell>
        <mxCell id="y66HL5zxgoOWzB-sJwk1-3" value="Geração do Arquivo" style="rounded=1;whiteSpace=wrap;html=1;fillColor=#d5e8d4;" vertex="1" parent="1">
          <mxGeometry x="1553" y="-424" width="155" height="40" as="geometry" />
        </mxCell>
        <mxCell id="y66HL5zxgoOWzB-sJwk1-4" value="Ler Fila" style="edgeStyle=orthogonalEdgeStyle;rounded=0;jettySize=auto;html=1;" edge="1" parent="1" source="y66HL5zxgoOWzB-sJwk1-1" target="y66HL5zxgoOWzB-sJwk1-2">
          <mxGeometry relative="1" as="geometry" />
        </mxCell>
        <mxCell id="y66HL5zxgoOWzB-sJwk1-5" value="Success" style="edgeStyle=orthogonalEdgeStyle;rounded=0;jettySize=auto;html=1;" edge="1" parent="1" source="y66HL5zxgoOWzB-sJwk1-2" target="y66HL5zxgoOWzB-sJwk1-3">
          <mxGeometry relative="1" as="geometry" />
        </mxCell>
        <mxCell id="y66HL5zxgoOWzB-sJwk1-10" value="Status: processing" style="text;strokeColor=none;fillColor=none;html=1;align=center;verticalAlign=middle;whiteSpace=wrap;rounded=0;fontSize=16;" vertex="1" parent="1">
          <mxGeometry x="1451" y="-552" width="171" height="30" as="geometry" />
        </mxCell>
        <mxCell id="y66HL5zxgoOWzB-sJwk1-14" value="Status: done" style="text;strokeColor=none;fillColor=none;html=1;align=center;verticalAlign=middle;whiteSpace=wrap;rounded=0;fontSize=16;" vertex="1" parent="1">
          <mxGeometry x="1545" y="-388" width="171" height="30" as="geometry" />
        </mxCell>
        <mxCell id="y66HL5zxgoOWzB-sJwk1-15" value="Azure Service Bus Dead-letter Queue" style="rounded=1;whiteSpace=wrap;html=1;fillColor=#e1d5e7;" vertex="1" parent="1">
          <mxGeometry x="1357" y="-436" width="168" height="55" as="geometry" />
        </mxCell>
        <mxCell id="y66HL5zxgoOWzB-sJwk1-13" value="Status: error" style="text;strokeColor=none;fillColor=none;html=1;align=center;verticalAlign=middle;whiteSpace=wrap;rounded=0;fontSize=16;" vertex="1" parent="1">
          <mxGeometry x="1383.5" y="-381" width="115" height="23" as="geometry" />
        </mxCell>
        <mxCell id="y66HL5zxgoOWzB-sJwk1-42" value="Status: inqueue" style="text;strokeColor=none;fillColor=none;html=1;align=center;verticalAlign=middle;whiteSpace=wrap;rounded=0;fontSize=16;" vertex="1" parent="1">
          <mxGeometry x="1451" y="-791" width="171" height="30" as="geometry" />
        </mxCell>
        <mxCell id="y66HL5zxgoOWzB-sJwk1-43" value="&lt;table&gt;&lt;tbody&gt;&lt;tr&gt;&lt;td&gt;Azure Virtual Machines&lt;/td&gt;&lt;/tr&gt;&lt;/tbody&gt;&lt;/table&gt;&lt;table&gt;&lt;tbody&gt;&lt;tr&gt;&lt;td&gt;&lt;/td&gt;&lt;/tr&gt;&lt;/tbody&gt;&lt;/table&gt;" style="text;strokeColor=none;fillColor=none;html=1;align=center;verticalAlign=middle;whiteSpace=wrap;rounded=0;fontSize=16;" vertex="1" parent="1">
          <mxGeometry x="510" y="-401" width="212" height="30" as="geometry" />
        </mxCell>
      </root>
    </mxGraphModel>
  </diagram>
</mxfile>
